<?xml version="1.0" standalone="no"?>
<!DOCTYPE svg PUBLIC "-//W3C//DTD SVG 20010904//EN"
 "http://www.w3.org/TR/2001/REC-SVG-20010904/DTD/svg10.dtd">
<svg version="1.0" xmlns="http://www.w3.org/2000/svg"
 width="829.000000pt" height="263.000000pt" viewBox="0 0 829.000000 263.000000"
 preserveAspectRatio="xMidYMid meet">

<g transform="translate(0.000000,263.000000) scale(0.100000,-0.100000)"
fill="#000000" stroke="none">
<path d="M2322 2383 c-20 -2 -32 -9 -29 -16 2 -7 -3 -18 -10 -25 -11 -11 -11
-17 -1 -29 7 -8 11 -30 10 -47 -3 -29 8 -43 107 -140 60 -59 111 -117 114
-127 5 -17 0 -19 -41 -18 -26 1 -76 4 -111 8 -62 6 -64 7 -75 41 -10 32 -14
35 -49 34 -21 -1 -42 -5 -47 -10 -9 -9 -17 -230 -9 -238 3 -3 24 0 47 6 37 9
43 15 52 49 l10 38 108 -6 c64 -4 115 -11 127 -19 46 -32 70 -13 78 64 l6 52
-30 0 c-46 0 -56 38 -28 113 l23 60 -30 25 -29 25 29 -18 c23 -14 33 -15 53
-6 27 12 219 15 227 3 2 -4 1 -36 -3 -70 -7 -56 -5 -64 12 -73 10 -6 20 -9 22
-7 12 13 55 133 51 143 -5 14 -108 65 -276 135 -96 41 -128 49 -195 53 -44 3
-95 3 -113 0z m58 -79 c0 -2 -9 0 -20 6 -11 6 -20 13 -20 16 0 2 9 0 20 -6 11
-6 20 -13 20 -16z m50 -30 c0 -2 -9 0 -20 6 -11 6 -20 13 -20 16 0 2 9 0 20
-6 11 -6 20 -13 20 -16z m65 -39 l20 -16 -20 10 c-11 5 -29 17 -40 26 l-20 16
20 -10 c11 -5 29 -17 40 -26z"/>
<path d="M5078 2380 c-51 -15 -87 -50 -120 -118 -32 -64 -33 -71 -33 -187 0
-138 17 -204 69 -262 99 -114 276 -90 346 47 53 104 53 306 0 410 -49 95 -159
141 -262 110z m111 -149 c27 -27 41 -84 41 -166 -1 -129 -30 -190 -88 -183
-44 5 -65 48 -70 142 -2 47 -1 105 2 130 13 83 70 122 115 77z"/>
<path d="M2950 2071 c0 -238 -3 -310 -12 -314 -7 -3 51 -6 130 -6 l142 -1 0
65 0 65 -70 0 -70 0 0 60 0 60 65 0 65 0 0 65 0 65 -65 0 -65 0 0 60 0 60 70
0 70 0 0 65 0 65 -130 0 -130 0 0 -309z"/>
<path d="M3330 2065 l0 -315 125 0 125 0 0 70 0 70 -55 0 -55 0 0 245 0 245
-70 0 -70 0 0 -315z"/>
<path d="M3680 2065 l0 -315 140 0 140 0 0 65 0 65 -70 0 -70 0 0 60 0 60 65
0 65 0 0 65 0 65 -65 0 -65 0 0 60 0 60 70 0 70 0 0 65 0 65 -140 0 -140 0 0
-315z"/>
<path d="M4030 2310 l0 -70 50 0 50 0 0 -245 0 -245 70 0 70 0 0 245 0 245 50
0 50 0 0 70 0 70 -170 0 -170 0 0 -70z"/>
<path d="M4460 2065 l0 -315 70 0 69 0 3 142 3 142 55 -140 56 -139 72 -3 c40
-2 72 1 72 5 0 5 -24 68 -53 142 l-54 132 33 33 c41 41 59 99 49 162 -5 38
-16 57 -48 90 -53 52 -94 64 -224 64 l-103 0 0 -315z m212 177 c16 -16 25 -67
17 -90 -5 -12 -20 -27 -34 -32 -52 -20 -55 -16 -55 66 l0 77 32 -7 c18 -3 36
-10 40 -14z"/>
<path d="M2615 2164 c-8 -9 -15 -25 -15 -37 0 -12 -3 -39 -6 -60 l-7 -38 89 3
89 3 9 63 c7 48 6 66 -3 71 -24 15 -140 11 -156 -5z m105 -49 c0 -8 -4 -15 -9
-15 -13 0 -22 16 -14 24 11 11 23 6 23 -9z"/>
<path d="M3821 1629 c-11 -29 -21 -58 -21 -65 0 -8 -3 -14 -8 -14 -4 0 -12
-17 -19 -37 -6 -21 -21 -59 -32 -85 l-20 -48 -320 0 c-366 0 -402 -5 -476 -67
-25 -20 -45 -40 -45 -43 0 -4 -8 -15 -18 -26 -41 -44 -62 -118 -62 -218 0 -52
5 -108 11 -123 32 -77 42 -94 81 -135 24 -24 70 -58 103 -74 l60 -29 295 -3
c193 -2 303 -6 317 -14 12 -6 34 -28 48 -49 20 -31 25 -51 25 -99 0 -67 -14
-102 -55 -140 l-27 -25 -434 -3 -434 -3 0 -95 0 -95 448 3 447 3 49 29 c91 53
146 127 175 232 38 140 -29 329 -139 394 -90 52 -75 50 -391 50 -291 0 -297 0
-329 23 -60 40 -75 70 -75 150 0 60 4 78 25 109 42 62 76 68 416 68 l294 0 17
-37 c18 -44 27 -67 41 -108 6 -16 23 -63 38 -102 l27 -73 104 0 103 0 0 348
c0 191 3 371 6 400 l7 52 -105 0 -105 0 -22 -51z"/>
<path d="M4140 1510 l0 -120 173 0 c187 0 197 2 225 57 16 30 15 98 -2 132
-24 45 -52 51 -231 51 l-165 0 0 -120z"/>
<path d="M4140 1045 l0 -125 171 0 172 0 33 36 c29 30 34 42 34 86 0 47 -23
98 -55 120 -5 4 -88 8 -182 8 l-173 0 0 -125z"/>
<path d="M4225 775 c-42 -41 -31 -105 23 -134 63 -33 140 42 112 108 -22 53
-95 67 -135 26z m97 -40 c10 -22 9 -29 -9 -46 -29 -29 -73 -17 -73 20 0 54 61
72 82 26z"/>
<path d="M4512 783 c-18 -32 -19 -136 -2 -163 15 -25 20 -7 8 38 -8 30 -7 54
1 88 13 49 9 68 -7 37z"/>
<path d="M4572 788 c-15 -15 -16 -44 -2 -53 6 -4 4 -12 -5 -21 -8 -9 -15 -22
-15 -29 0 -20 28 -45 50 -45 22 0 50 26 50 45 0 8 -6 20 -14 27 -10 10 -11 17
-2 30 22 36 -32 76 -62 46z m38 -33 c0 -8 -4 -15 -10 -15 -5 0 -10 7 -10 15 0
8 5 15 10 15 6 0 10 -7 10 -15z m0 -65 c0 -11 -4 -20 -10 -20 -5 0 -10 9 -10
20 0 11 5 20 10 20 6 0 10 -9 10 -20z"/>
<path d="M4696 744 c-32 -70 -32 -74 -1 -74 16 0 25 -6 25 -15 0 -21 37 -19
42 3 3 9 3 45 0 80 -4 51 -7 62 -22 62 -13 0 -27 -18 -44 -56z m24 -29 c0 -8
-4 -15 -10 -15 -5 0 -7 7 -4 15 4 8 8 15 10 15 2 0 4 -7 4 -15z"/>
<path d="M4796 780 c13 -49 16 -118 4 -140 -13 -25 -4 -42 10 -20 27 42 23
130 -6 166 -15 18 -15 18 -8 -6z"/>
<path d="M4926 784 c-9 -8 -16 -22 -16 -30 0 -25 20 -54 36 -54 10 0 14 -5 10
-15 -3 -8 -9 -22 -12 -30 -4 -10 0 -15 10 -15 20 0 55 72 56 112 0 43 -53 63
-84 32z m50 -25 c10 -17 -13 -36 -27 -22 -12 12 -4 33 11 33 5 0 12 -5 16 -11z"/>
<path d="M5046 784 c-9 -8 -16 -22 -16 -30 0 -25 20 -54 36 -54 10 0 14 -5 10
-15 -3 -8 -9 -22 -12 -30 -4 -10 0 -15 10 -15 20 0 55 72 56 112 0 43 -53 63
-84 32z m50 -25 c10 -17 -13 -36 -27 -22 -12 12 -4 33 11 33 5 0 12 -5 16 -11z"/>
<path d="M5170 758 c-11 -24 -20 -53 -20 -65 0 -26 25 -53 50 -53 49 0 67 75
22 95 -12 5 -20 16 -17 22 3 7 8 20 11 28 4 10 0 15 -10 15 -10 0 -25 -17 -36
-42z m46 -59 c10 -17 -13 -36 -27 -22 -12 12 -4 33 11 33 5 0 12 -5 16 -11z"/>
<path d="M5292 788 c-17 -17 -15 -48 3 -48 8 0 15 7 15 15 0 8 5 15 10 15 18
0 10 -32 -20 -81 l-30 -49 45 0 c33 0 45 4 45 15 0 8 -7 15 -15 15 -12 0 -11
7 5 42 18 41 17 66 -4 80 -16 11 -41 9 -54 -4z"/>
<path d="M5410 776 c0 -13 -3 -31 -6 -39 -4 -11 2 -16 18 -19 32 -4 32 -43 1
-42 -16 0 -23 -5 -23 -18 0 -23 42 -25 64 -2 23 22 20 71 -4 86 -11 7 -20 16
-20 20 0 5 9 8 20 8 11 0 20 7 20 15 0 10 -11 15 -35 15 -30 0 -35 -3 -35 -24z"/>
<path d="M5600 785 c0 -9 9 -15 24 -15 l24 0 -24 -65 c-22 -59 -22 -65 -6 -65
12 0 24 19 41 68 13 37 26 73 29 80 3 8 -9 12 -42 12 -34 0 -46 -4 -46 -15z"/>
<path d="M5732 788 c-17 -17 -15 -38 3 -38 8 0 15 5 15 10 0 6 5 10 10 10 6 0
10 -7 10 -15 0 -8 -4 -15 -10 -15 -5 0 -10 -7 -10 -15 0 -8 5 -15 10 -15 6 0
10 -9 10 -20 0 -17 -5 -19 -25 -14 -27 7 -33 -4 -13 -24 34 -34 87 5 72 51 -4
12 -7 32 -5 45 5 43 -39 68 -67 40z"/>
<path d="M5852 788 c-15 -15 -16 -44 -2 -53 6 -4 4 -12 -5 -21 -8 -9 -15 -22
-15 -29 0 -20 28 -45 50 -45 22 0 50 26 50 45 0 8 -6 20 -14 27 -10 10 -11 17
-2 30 22 36 -32 76 -62 46z m38 -33 c0 -8 -4 -15 -10 -15 -5 0 -10 7 -10 15 0
8 5 15 10 15 6 0 10 -7 10 -15z m0 -65 c0 -11 -4 -20 -10 -20 -5 0 -10 9 -10
20 0 11 5 20 10 20 6 0 10 -9 10 -20z"/>
<path d="M5970 785 c0 -8 5 -15 10 -15 6 0 10 -28 10 -65 0 -51 3 -65 15 -65
12 0 15 16 15 80 0 79 0 80 -25 80 -16 0 -25 -6 -25 -15z"/>
<path d="M5510 695 c0 -10 10 -15 30 -15 20 0 30 5 30 15 0 10 -10 15 -30 15
-20 0 -30 -5 -30 -15z"/>
<path d="M4500 510 c-7 -12 -12 -48 -12 -80 0 -32 5 -68 12 -80 18 -33 22 -18
9 34 -9 35 -9 57 0 92 13 52 9 67 -9 34z"/>
<path d="M4562 518 c-15 -15 -16 -44 -2 -53 6 -4 4 -12 -5 -21 -8 -9 -15 -22
-15 -29 0 -20 28 -45 50 -45 22 0 50 26 50 45 0 8 -6 20 -14 27 -10 10 -11 17
-2 30 22 36 -32 76 -62 46z m38 -33 c0 -8 -4 -15 -10 -15 -5 0 -10 7 -10 15 0
8 5 15 10 15 6 0 10 -7 10 -15z m0 -65 c0 -11 -4 -20 -10 -20 -5 0 -10 9 -10
20 0 11 5 20 10 20 6 0 10 -9 10 -20z"/>
<path d="M4686 474 c-32 -70 -32 -74 -1 -74 16 0 25 -6 25 -15 0 -21 37 -19
42 3 3 9 3 45 0 80 -4 51 -7 62 -22 62 -13 0 -27 -18 -44 -56z m24 -29 c0 -8
-4 -15 -10 -15 -5 0 -7 7 -4 15 4 8 8 15 10 15 2 0 4 -7 4 -15z"/>
<path d="M4786 510 c4 -14 8 -50 8 -80 0 -30 -4 -66 -8 -80 -7 -24 -7 -24 8
-6 9 11 19 34 22 53 8 42 -2 94 -22 119 -15 18 -15 18 -8 -6z"/>
<path d="M4916 514 c-9 -8 -16 -22 -16 -30 0 -25 20 -54 36 -54 10 0 14 -5 10
-15 -3 -8 -9 -22 -12 -30 -4 -10 0 -15 10 -15 20 0 55 72 56 112 0 43 -53 63
-84 32z m50 -25 c10 -17 -13 -36 -27 -22 -12 12 -4 33 11 33 5 0 12 -5 16 -11z"/>
<path d="M5042 518 c-15 -15 -16 -44 -2 -53 6 -4 4 -12 -5 -21 -8 -9 -15 -22
-15 -29 0 -20 28 -45 50 -45 22 0 50 26 50 45 0 8 -6 20 -14 27 -10 10 -11 17
-2 30 22 36 -32 76 -62 46z m38 -33 c0 -8 -4 -15 -10 -15 -5 0 -10 7 -10 15 0
8 5 15 10 15 6 0 10 -7 10 -15z m0 -65 c0 -11 -4 -20 -10 -20 -5 0 -10 9 -10
20 0 11 5 20 10 20 6 0 10 -9 10 -20z"/>
<path d="M5162 518 c-15 -15 -16 -44 -2 -53 6 -4 4 -12 -5 -21 -8 -9 -15 -22
-15 -29 0 -20 28 -45 50 -45 22 0 50 26 50 45 0 8 -6 20 -14 27 -10 10 -11 17
-2 30 22 36 -32 76 -62 46z m38 -33 c0 -8 -4 -15 -10 -15 -5 0 -10 7 -10 15 0
8 5 15 10 15 6 0 10 -7 10 -15z m0 -65 c0 -11 -4 -20 -10 -20 -5 0 -10 9 -10
20 0 11 5 20 10 20 6 0 10 -9 10 -20z"/>
<path d="M5270 515 c0 -9 9 -15 24 -15 l24 0 -24 -65 c-22 -59 -22 -65 -6 -65
12 0 24 19 41 68 13 37 26 73 29 80 3 8 -9 12 -42 12 -34 0 -46 -4 -46 -15z"/>
<path d="M5400 506 c0 -13 -3 -31 -6 -39 -4 -11 2 -16 18 -19 32 -4 32 -43 1
-42 -16 0 -23 -5 -23 -18 0 -23 42 -25 64 -2 23 22 20 71 -4 86 -11 7 -20 16
-20 20 0 5 9 8 20 8 11 0 20 7 20 15 0 10 -11 15 -35 15 -30 0 -35 -3 -35 -24z"/>
<path d="M5602 518 c-15 -15 -16 -44 -2 -53 6 -4 4 -12 -5 -21 -8 -9 -15 -22
-15 -29 0 -20 28 -45 50 -45 22 0 50 26 50 45 0 8 -6 20 -14 27 -10 10 -11 17
-2 30 22 36 -32 76 -62 46z m38 -33 c0 -8 -4 -15 -10 -15 -5 0 -10 7 -10 15 0
8 5 15 10 15 6 0 10 -7 10 -15z m0 -65 c0 -11 -4 -20 -10 -20 -5 0 -10 9 -10
20 0 11 5 20 10 20 6 0 10 -9 10 -20z"/>
<path d="M5722 518 c-17 -17 -15 -48 3 -48 8 0 15 7 15 15 0 8 5 15 10 15 18
0 10 -32 -20 -81 l-30 -49 45 0 c33 0 45 4 45 15 0 8 -7 15 -15 15 -12 0 -11
7 5 42 18 41 17 66 -4 80 -16 11 -41 9 -54 -4z"/>
<path d="M5842 518 c-17 -17 -15 -48 3 -48 8 0 15 7 15 15 0 8 5 15 10 15 18
0 10 -32 -20 -81 l-30 -49 45 0 c33 0 45 4 45 15 0 8 -7 15 -15 15 -12 0 -11
7 5 42 18 41 17 66 -4 80 -16 11 -41 9 -54 -4z"/>
<path d="M5966 474 c-32 -70 -32 -74 -1 -74 16 0 25 -6 25 -15 0 -21 37 -19
42 3 3 9 3 45 0 80 -4 51 -7 62 -22 62 -13 0 -27 -18 -44 -56z m24 -29 c0 -8
-4 -15 -10 -15 -5 0 -7 7 -4 15 4 8 8 15 10 15 2 0 4 -7 4 -15z"/>
<path d="M5500 425 c0 -10 10 -15 30 -15 20 0 30 5 30 15 0 10 -10 15 -30 15
-20 0 -30 -5 -30 -15z"/>
</g>
</svg>
